# xmcd
#
# Track frame offsets: 
#        150
#        23548
#        38838
#        52014
#        72746
#        93629
#        108275
#        122925
#        143071
#        164451
#
# Disc length: 2401 seconds
#
# Revision: 11
# Processed by: cddbd v1.5.2PL0 Copyright (c) Steve Scherf et al.
# Submitted via: ExactAudioCopyFreeDBPlugin 1.0
#
DISCID=8d095f0a
DTITLE=Ryan Adams and The Cardinals - Cold Roses [CD2]
DYEAR=2005
DGENRE=Folk and Rock
TTITLE0=Easy Plateau
TTITLE1=Let It Ride
TTITLE2=Rosebud
TTITLE3=Cold Roses
TTITLE4=If I Am A Stranger
TTITLE5=Dance All Night
TTITLE6=Blossom
TTITLE7=Life Is Beautiful
TTITLE8=Friends
TTITLE9=Tonight
EXTD=Mercury (Universal) YEAR: 2005
EXTT0=
EXTT1=
EXTT2=
EXTT3=
EXTT4=
EXTT5=
EXTT6=
EXTT7=
EXTT8=
EXTT9=
PLAYORDER=
